<?xml version="1.0" encoding="UTF-8"?>
<svg id="Layer_1" xmlns="http://www.w3.org/2000/svg" version="1.1" viewBox="0 0 200 200">
  <!-- Generator: Adobe Illustrator 29.0.1, SVG Export Plug-In . SVG Version: 2.1.0 Build 192)  -->
  <defs>
    <style>
      .st0, .st1 {
        fill: #fff;
      }

      .st1 {
        fill-rule: evenodd;
      }
    </style>
  </defs>
  <path class="st0" d="M68.1,8.5h63.9c2.1,0,3.8,0,5.2.1,10.1,1,18.4,7.1,21.9,15.3H40.9c3.5-8.2,11.8-14.3,21.9-15.3,1.4-.1,3.1-.1,5.2-.1Z"/>
  <path class="st0" d="M48,33.4c-12.7,0-23.2,7.7-26.6,17.9,0,.2-.1.4-.2.6,3.6-1.1,7.4-1.8,11.3-2.3,9.9-1.3,22.4-1.3,36.9-1.3h63c14.5,0,27,0,36.9,1.3,3.8.5,7.6,1.2,11.3,2.3,0-.2-.1-.4-.2-.6-3.5-10.2-13.9-17.9-26.6-17.9H48Z"/>
  <path class="st1" d="M130.4,59.2h-60.9c-30.9,0-46.3,0-55,9-8.7,9-6.6,23-2.6,50.9l3.9,26.5c3.2,21.9,4.8,32.8,13,39.4,8.2,6.5,20.3,6.5,44.5,6.5h53.1c24.2,0,36.3,0,44.5-6.5,8.2-6.5,9.8-17.5,13-39.4l3.9-26.5c4.1-27.9,6.1-41.8-2.6-50.9-8.7-9-24.1-9-55-9ZM123.6,134.7c5.1-3.2,5.1-11.4,0-14.5l-30.8-19.1c-5-3.1-11.1.9-11.1,7.3v38.2c0,6.3,6.1,10.3,11.1,7.3l30.8-19.1Z"/>
</svg>