<?xml version="1.0" encoding="UTF-8"?>
<svg id="Layer_1" xmlns="http://www.w3.org/2000/svg" version="1.1" viewBox="0 0 200 200">
  <!-- Generator: Adobe Illustrator 29.0.1, SVG Export Plug-In . SVG Version: 2.1.0 Build 192)  -->
  <defs>
    <style>
      .st0 {
        fill: #fff;
      }
    </style>
  </defs>
  <path class="st0" d="M73.3,38.2c11.9-21.3,17.8-31.9,26.7-31.9s14.8,10.6,26.7,31.9l3.1,5.5c3.4,6.1,5.1,9.1,7.7,11.1,2.6,2,5.9,2.7,12.5,4.2l6,1.3c23,5.2,34.6,7.8,37.3,16.6,2.7,8.8-5.1,18-20.8,36.4l-4.1,4.8c-4.5,5.2-6.7,7.8-7.7,11.1-1,3.2-.7,6.7,0,13.7l.6,6.3c2.4,24.5,3.6,36.8-3.6,42.2-7.2,5.4-18,.5-39.6-9.5l-5.6-2.6c-6.1-2.8-9.2-4.2-12.4-4.2s-6.3,1.4-12.4,4.2l-5.6,2.6c-21.6,9.9-32.4,14.9-39.6,9.5-7.2-5.4-6-17.7-3.6-42.2l.6-6.3c.7-7,1-10.5,0-13.7-1-3.2-3.2-5.8-7.7-11.1l-4.1-4.8c-15.7-18.4-23.6-27.6-20.8-36.4,2.7-8.8,14.3-11.4,37.3-16.6l6-1.3c6.5-1.5,9.8-2.2,12.5-4.2,2.6-2,4.3-5,7.7-11.1l3.1-5.5Z"/>
</svg>