<?xml version="1.0" encoding="UTF-8"?>
<svg id="Layer_1" xmlns="http://www.w3.org/2000/svg" version="1.1" xmlns:sketch="http://www.bohemiancoding.com/sketch/ns" viewBox="0 0 200 200">
  <!-- Generator: Adobe Illustrator 29.0.1, SVG Export Plug-In . SVG Version: 2.1.0 Build 192)  -->
  <defs>
    <style>
      .st0 {
        fill: #fff;
      }
    </style>
  </defs>
  <g id="Page-1" sketch:type="MSPage">
    <g id="Icon-Set-Filled" sketch:type="MSLayerGroup">
      <path id="expand" class="st0" d="M191.9,14.6c0-1.8-.8-3.4-2-4.5-1.1-1.2-2.7-2.1-4.5-2.1h-50.4c-3.3,0-6,2.6-6,6,0,3.3,3.9,7.1,5.6,8.8l12.8,12.8-35.8,35.5,17.3,17.3,35.5-35.7,12.8,12.8c2.8,2.8,5.6,5.8,8.9,5.8s6-2.7,6-6.1V14.6h0ZM71.2,111.5l-36,36.7-12.5-12.5c-2.7-2.7-5.5-5.6-8.7-5.6s-5.9,2.6-5.9,5.9v49.6c0,1.7.9,3.3,2.1,4.4,1.1,1.2,2.6,2,4.4,2h49.6c3.3,0,5.9-2.6,5.9-5.9,0-3.3-3.8-7-5.5-8.6l-12.5-12.5,36.5-36.2-17.3-17.3h0Z" sketch:type="MSShapeGroup"/>
    </g>
  </g>
</svg>