<?xml version="1.0" encoding="UTF-8"?>
<svg id="Layer_1" xmlns="http://www.w3.org/2000/svg" version="1.1" xmlns:xlink="http://www.w3.org/1999/xlink" viewBox="0 0 137 50">
  <!-- Generator: Adobe Illustrator 29.0.1, SVG Export Plug-In . SVG Version: 2.1.0 Build 192)  -->
  <defs>
    <style>
      .st0 {
        fill: url(#linear-gradient2);
      }

      .st1 {
        fill: url(#linear-gradient1);
      }

      .st2 {
        fill: url(#linear-gradient3);
      }

      .st3 {
        fill: url(#linear-gradient);
      }
    </style>
    <linearGradient id="linear-gradient" x1="49.5" y1="32" x2="91.5" y2="10" gradientUnits="userSpaceOnUse">
      <stop offset="0" stop-color="#ff0808"/>
      <stop offset="1" stop-color="#860000"/>
    </linearGradient>
    <linearGradient id="linear-gradient1" x1="58.4" y1="16" x2="83.6" y2="2.9" gradientUnits="userSpaceOnUse">
      <stop offset="0" stop-color="#268cff"/>
      <stop offset="1" stop-color="#004aa4"/>
    </linearGradient>
    <linearGradient id="linear-gradient2" x1="55.2" y1="15.3" x2="87.6" y2="-1.1" xlink:href="#linear-gradient"/>
    <linearGradient id="linear-gradient3" x1="50.1" y1="42.5" x2="89.8" y2="42.5" xlink:href="#linear-gradient1"/>
  </defs>
  <path class="st3" d="M53.6,26.1v4.9c.1,0,.2,0,.2,0l16,8.4h.2c0,0,16.2-8,16.2-8h0c0,0,.2-5,.2-5h-.1s-16.3,7.7-16.3,7.7c-.2,0-.2-.3-.2-.4.1-4.3.2-8.5.2-12.8s0-2.5,0-3.7c0,0,0,0,.1-.1.3-.2.8-.3,1.2-.5,6.3-2.6,12.6-5.2,18.9-7.7s.8-.4.9-.3.1.5,0,.7c0,1.2-.2,2.5-.2,3.7s0,.7,0,1,0,.1-.1.2l-16.3,7c0,0,0,0,0,.1,0,.5,0,1.2,0,1.7s0,.2,0,.2c0,.5,0,.9,0,1.4,0,.7,0,1.3,0,2h0s16-7.2,16-7.2h.2c0,0,0,.7,0,.8-.2,4.4-.5,8.8-.8,13.2s0,.8,0,1.1-.4.3-.6.5l-19.6,9.9-19.7-10.8c0-.5,0-1,0-1.5-.3-7.8-.5-15.5-.7-23.3s0-.7,0-1,0-.1.2-.2l18.2,7.9c.1,0,.4.1.4.3v5.4c0,.1,0,.3-.2.3l-14.3-6.6c0,0,0,.3,0,.4,0,1.1,0,2.1.1,3.2s0,1.5,0,1.6.5.3.6.4c2.4,1.2,4.8,2.3,7.2,3.4.2,0,.2.3.2.4.1,1.6,0,3.3,0,4.9h0c0,.1,0,.2,0,.2l-7.8-3.9Z"/>
  <path class="st1" d="M70.2,4.8h.3c4,1.6,8,3.1,12,4.6s.9.3,1.2.5c0,.1,0,.2,0,.2-.2.1-.5.2-.8.3-.6.3-1.3.5-1.9.8h-.2s-5.3-2.2-5.3-2.2h0c0,.1-.3,4.2-.3,4.2,0,.4-.3.4-.6.5-1.4.6-2.8,1.1-4.2,1.7h-.3s-4.4-1.9-4.4-1.9h-.1c0-.1-.2-4.6-.2-4.6l-5.6,2c0,0-.1,0-.2,0-.7-.2-1.8-.7-2.4-1s-.3-.1-.3-.2h0c0,0,13.3-4.9,13.3-4.9Z"/>
  <path class="st0" d="M70.3.8c0,0,.2,0,.3,0,5.9,2.2,11.8,4.3,17.7,6.5s.7.2.8.3c.2.2,0,.3-.2.4-1.1.5-2.4.9-3.6,1.4h-.2s-14.8-5.6-14.8-5.6l-14.8,5.3h-.2s-3.6-1.6-3.6-1.6c-.1,0-.2-.2,0-.3L70.3.8Z"/>
  <path class="st2" d="M50.2,35.9c0,0,.1,0,.2,0,6,3.3,11.9,6.7,17.9,10,.4.2,1,.6,1.4.7s0,0,.1,0c.1,0,.7-.3.9-.4,6.3-3.2,12.6-6.6,18.9-9.8h.2c.1,0,0,.2,0,.3,0,.4,0,.8,0,1.2s0,.5-.1.6l-19.9,10.4-19.5-11c-.1-.1,0-.4,0-.6,0-.4,0-1.1,0-1.5s0,0,0-.1Z"/>
</svg>